PathFileType	4	(X/Y/Z)	C:\Users\Basilio\Documents\Thesis Gigler\squatting_fais\c3dfiles\076\SLS_back_pre2\markers_experimental.trc
DataRate	CameraRate	NumFrames	NumMarkers	Units	OrigDataRate	OrigDataStartFrame	OrigNumFrames
200.000000	200.000000	4	61	mm	200.000000	486	1947
Frame#	Time	FHD			LBHD			RBHD			C7			T10			CLAV			LSHO			LUUPA			LMUPA			LDUPA			LLEP			LMEP			LRAD			LUL			LRFIN			RSHO			RUPA1			RMUPA			RDUPA			RLEP			RMEP			RRAD			RUL			RUFIN			RASI			USACR			LSACR			RSACR			LTHI1			LTHI2			LTHI3			LTHI4			LLFC			LMFC			LTIB1			LTIB2			LTIB3			LTIB4			LLMAL			LMMAL			LHEE			LMT1			LMT2			LMT5			RTHI			RTHI2			RTHI3			RTHI4			RLFC			RMFC			RTIB1			RTIB2			RTIB3			RTIB4			RLMAL			RMMAL			RHEE			RMT1			RMT2			RMT5			LASI			
		X1	Y1	Z1	X2	Y2	Z2	X3	Y3	Z3	X4	Y4	Z4	X5	Y5	Z5	X6	Y6	Z6	X7	Y7	Z7	X8	Y8	Z8	X9	Y9	Z9	X10	Y10	Z10	X11	Y11	Z11	X12	Y12	Z12	X13	Y13	Z13	X14	Y14	Z14	X15	Y15	Z15	X16	Y16	Z16	X17	Y17	Z17	X18	Y18	Z18	X19	Y19	Z19	X20	Y20	Z20	X21	Y21	Z21	X22	Y22	Z22	X23	Y23	Z23	X24	Y24	Z24	X25	Y25	Z25	X26	Y26	Z26	X27	Y27	Z27	X28	Y28	Z28	X29	Y29	Z29	X30	Y30	Z30	X31	Y31	Z31	X32	Y32	Z32	X33	Y33	Z33	X34	Y34	Z34	X35	Y35	Z35	X36	Y36	Z36	X37	Y37	Z37	X38	Y38	Z38	X39	Y39	Z39	X40	Y40	Z40	X41	Y41	Z41	X42	Y42	Z42	X43	Y43	Z43	X44	Y44	Z44	X45	Y45	Z45	X46	Y46	Z46	X47	Y47	Z47	X48	Y48	Z48	X49	Y49	Z49	X50	Y50	Z50	X51	Y51	Z51	X52	Y52	Z52	X53	Y53	Z53	X54	Y54	Z54	X55	Y55	Z55	X56	Y56	Z56	X57	Y57	Z57	X58	Y58	Z58	X59	Y59	Z59	X60	Y60	Z60	X61	Y61	Z61	

487	2.43	-196.8684844970704	1635.199462890625	-1011.403869628906	-333.9995727539063	1567.786865234375	-1111.970825195313	-323.2859802246094	1568.6103515625	-960.1558837890627	-382.0389709472657	1447.642578125	-1039.021240234375	-414.9552001953126	1129.178833007813	-1037.77294921875	-249.9534912109376	1366.730102539063	-1037.080688476563	-319.6499938964844	1391.09765625	-1208.635864257813	-309.4746398925782	1226.052612304688	-1322.952392578125	-272.1619262695313	1196.861206054688	-1305.441162109375	-295.2624816894532	1166.088012695313	-1354.136962890625	-290.3173522949219	1115.344970703125	-1379.78564453125	-333.2899169921876	1069.041870117188	-1319.071044921875	-129.7967529296875	972.8914794921877	-1259.054077148438	-99.66848754882815	969.054382324219	-1316.424682617188	-65.95681762695314	955.9171142578127	-1219.41259765625	-323.1221008300782	1391.757202148438	-874.7677001953127	-344.1817626953126	1258.68017578125	-730.1624145507814	-298.3378906250001	1238.810546875	-724.3929443359376	-330.3903808593751	1205.038940429688	-685.6065063476564	-296.8548889160157	1147.22607421875	-655.2056884765626	-348.1109008789063	1098.767333984375	-708.4937744140626	-177.9778747558594	1002.450378417969	-815.0089111328127	-136.5089874267578	995.338317871094	-762.9981689453126	-123.3870468139649	1003.506896972656	-857.2822875976565	-250.4175262451172	949.961364746094	-921.4937133789065	-417.7767028808595	1019.8974609375	-1028.575317382813	-426.4031372070314	990.8579711914065	-1055.375854492188	-424.7820739746095	990.581237792969	-999.1281738281252	-341.6227111816407	787.335388183594	-1188.492309570313	-320.1706237792969	706.8950805664064	-1178.091918945313	-270.5361022949219	706.9683837890626	-1171.6181640625	-352.1926879882813	659.1339721679689	-1158.100830078125	-360.8936462402344	499.5664672851564	-1118.987915039063	-321.9042358398438	502.8780517578126	-1005.723999023438	-323.7774047851563	362.0483703613282	-1038.597045898438	-349.4783020019532	302.7794189453126	-1098.426635742188	-318.2021789550782	309.1838073730469	-1063.758178710938	-330.0631713867188	235.4327392578126	-1022.990173339844	-388.2360839843751	107.2850341796875	-1057.318725585938	-356.3004760742188	125.2025985717774	-981.713806152344	-443.3152770996095	97.36372375488284	-1008.124084472656	-241.8437194824219	53.67406082153322	-994.0850219726565	-236.3782958984376	49.39698410034181	-1032.781005859375	-260.1279602050782	42.98639678955079	-1082.687133789063	-280.0672607421876	712.9142456054689	-821.2568359375002	-227.7108764648438	670.9517822265626	-810.3101196289065	-195.0562896728516	680.8887939453126	-818.247009277344	-230.3310241699219	587.7021484375001	-817.9458618164065	-219.2534332275391	536.4862060546876	-819.3660888671877	-184.446273803711	519.3951416015626	-926.924499511719	-217.7332000732422	398.6585693359376	-824.791198730469	-315.2298889160157	351.5307922363282	-810.5808105468752	-272.2360839843751	331.8399353027344	-814.0028076171877	-272.7724609375001	282.0038757324219	-845.5942993164065	-385.4617614746095	173.3708648681641	-820.9050903320315	-347.3290100097657	176.2034912109375	-899.7348632812502	-441.4979553222657	168.7806854248047	-872.0207519531252	-255.1348571777344	80.8197479248047	-873.4556884765627	-252.2858581542969	82.31361389160158	-827.5374145507815	-291.2267456054688	73.76442718505861	-778.9764404296877	-255.2316589355469	944.1119384765627	-1139.742919921875	
488	2.435	-197.0870819091797	1635.196411132813	-1011.698364257813	-334.8141174316407	1567.242065429688	-1111.944946289063	-323.5919189453126	1568.630126953125	-960.4436035156252	-382.4487915039063	1447.698364257813	-1039.108154296875	-415.6054077148439	1129.316528320313	-1038.021484375	-250.2895507812501	1366.704223632813	-1037.341796875	-320.9176330566407	1390.945556640625	-1209.13671875	-307.9340515136719	1225.304443359375	-1322.207763671875	-270.5377502441407	1196.941772460938	-1304.765625	-292.7679443359376	1165.352905273438	-1353.1201171875	-288.0220642089844	1114.74853515625	-1378.80322265625	-329.6430664062501	1067.929931640625	-1317.754272460938	-124.5895156860352	973.2092895507815	-1259.600830078125	-94.92312622070314	969.5520019531252	-1317.189208984375	-60.26053619384767	956.1592407226565	-1220.62060546875	-323.0340270996094	1391.708129882813	-875.0242919921877	-342.5263061523438	1257.571533203125	-730.7930908203126	-296.5355834960938	1238.144897460938	-725.3014526367189	-328.0210266113282	1203.710815429688	-686.7968139648439	-293.9699707031251	1146.216674804688	-656.6786499023439	-344.5496520996094	1097.319458007813	-710.1621704101564	-172.1158142089844	1001.687561035156	-815.1136474609377	-131.770736694336	994.978698730469	-762.5836181640626	-116.8471450805664	1002.494873046875	-856.5161132812502	-250.8381805419922	950.1722412109377	-921.6355590820315	-418.3022766113282	1020.072509765625	-1028.814208984375	-426.9395141601564	990.9766845703127	-1055.653442382813	-425.3573608398439	990.6551513671877	-999.3494262695315	-342.2520751953126	787.2234497070315	-1188.537475585938	-320.7653198242188	706.9578247070314	-1178.161010742188	-271.1790771484376	707.1773681640626	-1171.92041015625	-352.6489868164063	659.1206665039064	-1158.12060546875	-361.0692138671876	499.5599975585939	-1118.9736328125	-321.8850708007813	502.9158935546876	-1005.876098632813	-323.8085937500001	362.0416259765626	-1038.733154296875	-349.7901916503907	302.8209533691407	-1098.4873046875	-318.2832031250001	309.4114074707032	-1063.622924804688	-330.1928405761719	235.2473297119141	-1023.274597167969	-388.195526123047	107.2075958251953	-1057.309814453125	-356.2421264648438	125.3454284667969	-981.7667236328127	-443.0113220214845	97.14235687255862	-1008.075256347656	-241.8699035644532	53.61442947387697	-994.1121826171877	-236.4446716308594	49.40417861938478	-1032.83154296875	-260.0648193359376	42.94444274902344	-1082.66552734375	-279.2213745117188	713.5310668945314	-821.1807250976565	-226.4339599609376	671.9851684570314	-810.1901855468752	-193.8938903808594	681.9948730468751	-818.2869873046877	-228.744125366211	588.6981201171876	-817.7059326171877	-217.5675506591797	537.5179443359376	-819.1819458007815	-183.1349792480469	520.4630126953126	-926.9818115234377	-217.2147979736329	399.8261718750001	-824.9807128906252	-315.3980712890626	353.7886352539063	-810.8713378906252	-272.6808166503907	333.4285888671876	-814.1524047851565	-273.5202331542969	283.6618041992188	-846.195983886719	-387.4754028320314	176.4460144042969	-821.6170654296877	-350.5288085937501	179.1956176757813	-900.4405517578127	-443.6692504882814	172.7725677490235	-872.7625732421877	-258.3782043457032	82.74824523925783	-875.0766601562502	-255.7682189941407	83.94106292724611	-829.2402343750002	-294.2503662109376	75.54344940185548	-780.5300903320315	-255.6533660888672	944.309020996094	-1139.73681640625	
489	2.44	-197.3562011718751	1635.137451171875	-1011.981750488281	-334.6209411621094	1567.81494140625	-1112.457885742188	-323.8768310546876	1568.623657226563	-960.7388916015627	-382.8322753906251	1447.685913085938	-1039.20654296875	-416.185760498047	1129.52197265625	-1038.266967773438	-250.7936096191407	1366.692138671875	-1037.72998046875	-320.7344970703126	1390.4658203125	-1209.0087890625	-306.6142578125001	1224.781860351563	-1321.687255859375	-268.6321716308594	1196.917846679688	-1303.789916992188	-290.9183959960938	1165.048461914063	-1352.37109375	-284.9652709960938	1114.171752929688	-1377.774780273438	-325.9202880859376	1067.019287109375	-1316.65185546875	-119.4220657348633	973.572937011719	-1260.11572265625	-90.43124389648439	970.3706054687502	-1317.953491210938	-54.57697677612306	956.5112304687502	-1221.798095703125	-322.9350280761719	1391.632446289063	-875.243591308594	-340.9563293457032	1256.396240234375	-731.5130615234376	-294.6242675781251	1237.499145507813	-726.3407592773439	-325.7816467285157	1202.32470703125	-687.8578491210939	-290.9269714355469	1145.156372070313	-658.1439208984376	-340.8552246093751	1096.329223632813	-711.9723510742189	-166.8140106201172	1001.386474609375	-815.607604980469	-126.8584899902344	994.7246704101565	-762.2178344726564	-110.8565368652344	1001.531127929688	-856.032897949219	-251.2902526855469	950.4294433593752	-921.7471313476565	-418.9751892089845	1020.225402832031	-1028.922729492188	-427.5452270507814	991.030944824219	-1055.837890625	-425.8914184570314	990.7498168945315	-999.4727172851565	-342.9866638183594	787.3306274414065	-1188.51708984375	-321.3088073730469	707.0217285156251	-1178.250610351563	-271.6565246582032	707.2897338867189	-1172.087524414063	-353.2321777343751	659.2083740234376	-1158.138793945313	-361.5140991210938	499.6058044433595	-1118.93359375	-321.9134826660157	502.9389648437501	-1005.990356445313	-323.8872985839844	362.0768432617188	-1038.787231445313	-349.9694824218751	302.8992919921876	-1098.51953125	-318.3908996582032	309.4605407714844	-1063.770874023438	-330.5191650390626	235.0896606445313	-1023.564392089844	-388.2615661621095	107.2425689697266	-1057.326171875	-356.0669860839844	125.4119567871094	-981.7819824218752	-443.0445861816407	97.17445373535159	-1008.065063476563	-241.8345336914063	53.65606689453126	-994.165466308594	-236.2871551513672	49.34030914306642	-1032.761596679688	-260.0659484863282	42.95304489135743	-1082.653442382813	-278.3031921386719	714.1393432617189	-821.1225585937502	-225.3438568115235	672.8594970703126	-810.284606933594	-192.6949005126954	683.1586914062501	-818.2844238281252	-227.3893737792969	589.3720703125001	-817.5629882812502	-216.1616516113282	538.4764404296876	-819.132263183594	-181.7168426513672	521.6207885742189	-926.7698364257815	-217.0006866455079	400.7181396484376	-825.3865356445315	-315.5982055664063	356.0979003906251	-811.2783813476565	-273.0604553222657	335.2937011718751	-814.5196533203127	-274.8749389648438	285.6961364746094	-846.603454589844	-389.7492980957032	179.439437866211	-822.4957275390627	-353.2418823242188	182.0675506591797	-901.3278808593752	-446.1242675781251	176.7525024414063	-873.4341430664065	-261.6908874511719	84.76063537597658	-876.688903808594	-258.9723815917969	85.75999450683595	-830.7944946289065	-297.4877624511719	77.43016815185548	-781.9440917968752	-256.2117309570313	944.4737548828127	-1139.836303710938	
490	2.445	-197.5635528564454	1635.076782226563	-1012.313293457031	-335.5337219238282	1567.407958984375	-1112.55224609375	-324.1965637207032	1568.7109375	-961.1013793945315	-383.2451171875001	1447.743286132813	-1039.321411132813	-416.7216186523439	1129.539184570313	-1038.415649414063	-251.2305145263672	1366.735717773438	-1038.199462890625	-321.4908447265626	1390.267822265625	-1209.281005859375	-305.3118896484376	1224.216430664063	-1321.269897460938	-266.9104309082032	1196.991577148438	-1303.060180664063	-288.6348876953126	1164.568481445313	-1351.452026367188	-281.3054504394532	1113.577514648438	-1376.37109375	-321.9251708984376	1066.149536132813	-1315.282470703125	-114.3474960327149	974.1008300781252	-1260.511840820313	-85.75154113769533	971.200378417969	-1318.609008789063	-48.91933822631837	957.0185546875002	-1222.924560546875	-322.8602294921876	1391.501342773438	-875.5057373046877	-339.3178710937501	1255.153198242188	-732.2373657226564	-292.8776855468751	1236.850219726563	-727.1608276367189	-323.3478698730469	1201.011474609375	-689.0835571289064	-287.8785095214844	1144.079956054688	-659.6201782226564	-336.8868103027344	1094.889526367188	-713.9353637695314	-160.9716949462891	1000.751342773438	-815.819030761719	-121.7350006103516	994.4299926757815	-761.7626342773439	-104.3890380859375	1000.525573730469	-855.4724731445315	-251.6920471191407	951.0346679687502	-922.1152343750002	-419.572967529297	1020.205810546875	-1028.993530273438	-428.0987854003907	991.1077880859377	-1055.876342773438	-426.4087219238282	990.6956787109377	-999.5664062500002	-344.3185119628907	787.6120605468752	-1188.810180664063	-321.7966308593751	707.0362548828126	-1178.2900390625	-272.0927734375001	707.3054199218751	-1172.152465820313	-353.8086853027344	659.2578125000001	-1158.186401367188	-361.8316040039063	499.5814514160157	-1118.95263671875	-321.9424743652344	503.0028076171876	-1006.049499511719	-324.0360412597657	362.1385498046876	-1038.882568359375	-350.1792297363282	302.8784484863282	-1098.53173828125	-318.4689636230469	309.4934692382813	-1063.84033203125	-331.0491943359376	235.2454528808594	-1023.649169921875	-388.3472595214845	107.2624664306641	-1057.345581054688	-355.9289855957032	125.3321762084961	-981.7525634765627	-443.3066406250001	97.37908935546878	-1008.138122558594	-241.8233947753907	53.71338653564455	-994.1611938476565	-236.3064117431641	49.3354835510254	-1032.768432617188	-260.0758666992188	42.91665649414063	-1082.679443359375	-277.3312377929688	714.7401123046876	-820.9294433593752	-224.2299346923829	673.5682373046876	-810.1106567382815	-191.8268127441407	684.1055908203126	-818.3980712890627	-225.8104705810547	590.2614746093751	-817.312927246094	-214.3966064453126	539.4830932617189	-818.9248657226565	-180.4128875732422	522.5403442382814	-926.7025146484377	-216.5292663574219	401.9727478027345	-825.4436645507815	-315.7925415039063	358.4295959472657	-811.5244750976565	-273.5043945312501	337.0223388671876	-814.8623046875002	-275.8350219726563	287.6206054687501	-847.1263427734377	-391.7994995117189	182.7654571533203	-823.2879028320315	-355.3254394531251	185.3066711425782	-902.1702270507815	-448.373748779297	180.8065338134766	-874.0727539062502	-265.2118530273438	86.70639801025392	-878.4312744140627	-262.0351257324219	87.42588043212892	-832.2209472656252	-300.6854858398438	79.51510620117189	-783.5203247070315	-256.6566162109376	944.572204589844	-1139.927612304688	
